<?xml version="1.0" encoding="utf-8"?>
<!-- Generator: Adobe Illustrator 24.0.3, SVG Export Plug-In . SVG Version: 6.00 Build 0)  -->
<svg version="1.1" id="Icons" xmlns="http://www.w3.org/2000/svg" xmlns:xlink="http://www.w3.org/1999/xlink" x="0px" y="0px"
	 viewBox="0 0 48 48" style="enable-background:new 0 0 48 48;" xml:space="preserve">
<style type="text/css">
	.st0{opacity:0.15;fill:#45413C;enable-background:new    ;}
	.st1{fill:#5F3200;}
	.st2{fill:#3F2500;}
	.st3{fill:none;stroke:#45413C;stroke-linecap:round;stroke-linejoin:round;}
	.st4{fill:#FFCEBF;stroke:#45413C;stroke-linecap:round;stroke-linejoin:round;}
	.st5{fill:#45413C;stroke:#45413C;stroke-linecap:round;stroke-linejoin:round;}
	.st6{fill:#FF6242;}
	.st7{fill:#FFA694;}
	.st8{fill:#FFB59E;}
</style>
<title></title>
<ellipse id="_Ellipse_" class="st0" cx="24" cy="44.5" rx="12.5" ry="1.5"/>
<path id="_Path_" class="st1" d="M24,1.5c8.9,0,16.2,7.2,16.2,16.2v21.1c0,0.7-0.5,1.4-1.2,1.7l0,0c-9.6,3.9-20.4,3.9-30,0l0,0
	c-0.7-0.3-1.1-0.9-1.1-1.7V17.7C7.9,8.7,15.1,1.5,24,1.5z"/>
<path id="_Path_2" class="st2" d="M24,1.5c-8.9,0-16.2,7.2-16.2,16.2v4.5C7.8,13.2,15.1,6,24,6c8.9,0,16.2,7.2,16.2,16.2v-4.5
	C40.2,8.7,32.9,1.5,24,1.5z"/>
<path id="_Path_3" class="st3" d="M24,1.5c8.9,0,16.2,7.2,16.2,16.2v21.1c0,0.7-0.5,1.4-1.2,1.7l0,0c-9.6,3.9-20.4,3.9-30,0l0,0
	c-0.7-0.3-1.1-0.9-1.1-1.7V17.7C7.9,8.7,15.1,1.5,24,1.5z"/>
<g id="_Group_">
	<path id="_Path_4" class="st4" d="M37.5,21c-3.8-1.1-6.9-3.8-8.5-7.4l-0.9-2.2c-3.6,4.8-8.9,8.1-14.8,9.2L10.5,21
		C9,21.1,7.9,22.4,8,23.9c0.1,1.4,1.2,2.4,2.5,2.5h0.2c1.1,7.3,8,12.4,15.3,11.3c5.8-0.9,10.4-5.5,11.3-11.3h0.2
		c1.5-0.1,2.6-1.4,2.5-2.9C39.9,22.2,38.8,21.1,37.5,21L37.5,21z"/>
</g>
<g id="_Group_2">
	<path id="_Path_5" class="st5" d="M15.9,23.2c0,0.6,0.5,1.1,1.2,1.1c0.6,0,1.1-0.5,1.1-1.2c0-0.6-0.5-1.1-1.2-1.1
		C16.4,22,15.9,22.5,15.9,23.2C15.9,23.2,15.9,23.2,15.9,23.2z"/>
	<path id="_Path_6" class="st5" d="M32.1,23.2c0,0.6-0.5,1.1-1.2,1.1c-0.6,0-1.1-0.5-1.1-1.2c0-0.6,0.5-1.1,1.2-1.1
		C31.6,22,32.1,22.5,32.1,23.2C32.1,23.2,32.1,23.2,32.1,23.2z"/>
	<g id="_Group_3">
		<g id="_Group_4">
			<path id="_Path_7" class="st6" d="M20.3,30.5c-0.2,0-0.3,0.1-0.4,0.2c-0.1,0.1-0.2,0.3-0.1,0.5c0.4,2.4,2.6,3.9,5,3.5
				c1.8-0.3,3.2-1.7,3.5-3.5c0-0.2,0-0.3-0.1-0.5c-0.1-0.1-0.3-0.2-0.4-0.2H20.3z"/>
			<path id="_Path_8" class="st7" d="M24,32.2c-1.2,0-2.3,0.3-3.3,1c1.6,1.8,4.3,2,6.2,0.4c0.2-0.1,0.3-0.3,0.4-0.4
				C26.3,32.6,25.2,32.2,24,32.2z"/>
		</g>
	</g>
	<g id="_Group_5">
		<path id="_Path_9" class="st3" d="M20.3,30.5c-0.2,0-0.3,0.1-0.4,0.2c-0.1,0.1-0.2,0.3-0.1,0.5c0.4,2.4,2.6,3.9,5,3.5
			c1.8-0.3,3.2-1.7,3.5-3.5c0-0.2,0-0.3-0.1-0.5c-0.1-0.1-0.3-0.2-0.4-0.2H20.3z"/>
	</g>
	<ellipse id="_Ellipse_2" class="st8" cx="15.2" cy="28.1" rx="1.5" ry="0.9"/>
	<ellipse id="_Ellipse_3" class="st8" cx="32.8" cy="28.1" rx="1.5" ry="0.9"/>
</g>
</svg>
