<?xml version="1.0" encoding="utf-8"?>
<!-- Generator: Adobe Illustrator 24.0.3, SVG Export Plug-In . SVG Version: 6.00 Build 0)  -->
<svg version="1.1" id="Layer_8" xmlns="http://www.w3.org/2000/svg" xmlns:xlink="http://www.w3.org/1999/xlink" x="0px" y="0px"
	 viewBox="0 0 512 512" style="enable-background:new 0 0 512 512;" xml:space="preserve">
<style type="text/css">
	.st0{fill:#F26A45;}
	.st1{fill:#F7BFB7;}
	.st2{fill:#E1B2AE;}
	.st3{fill:#FBC9C6;}
	.st4{fill:#764E2A;}
	.st5{fill:#FFFFFF;}
	.st6{fill:#1C1C4C;}
	.st7{fill:#DEA098;}
	.st8{fill:#E8E8E8;}
	.st9{fill:#62B446;}
	.st10{clip-path:url(#SVGID_2_);fill:#FFFFFF;}
</style>
<path class="st0" d="M223.8,449.1c8.2-0.5,16.5-0.7,24.7-0.7c14-0.4,28.1-0.7,42.1-0.4c-4.9-10-14.8-19.6-34.5-19.6
	c-20.5,0-30,10.3-34.4,20.7C222.4,449.2,223.1,449.1,223.8,449.1z"/>
<path class="st1" d="M246.6,405c0,0,0,26.2,0,31.3s4.4,9.5,12.8,9.5s10.9-5.8,10.9-12.4s0-28.5,0-28.5h-23.7V405z"/>
<path class="st2" d="M246.6,417c3.1,2.1,8.2,5,13.3,6.1c4,0.9,7.7,1.2,10.4,1.3c0-7.1,0-15.5,0-18.4h-23.7
	C246.6,407.9,246.6,412.2,246.6,417z"/>
<path class="st1" d="M237.8,399.4c0,0,3.3,12.9,24.7,12.9s18.9,0,28.1,0s29.9-8.5,29.9-34.3s0-54,0-54h-83.9l-14.2,27.6L237.8,399.4
	z"/>
<path class="st3" d="M211.7,399.4c0,0,3.3,12.9,24.7,12.9s18.9,0,28.1,0s29.9-8.5,29.9-34.3s0-54,0-54h-83.9l-14.2,27.6L211.7,399.4
	z"/>
<path class="st4" d="M215,379.3c0,0,0,37.9,0,42.4s-2.8,8.3-9.5,8.3s-8.3-3.8-8.3-13s0-36.6,0-36.6s-8.3-7.5-11.3-17.8
	s-3-25.3-3-25.3s-22.6,0.3-38.4-17s-12.5-54.9,10-72.2c22.6-17.3,57.2-9.5,67.9,7.3c10.8,16.8,11.8,30.6,11.8,30.6s84.5,0,92.8,0
	s21.1,8.8,21.1,27.1s-17.7,22.2-25.7,21.7s-10.9-2.7-10.9-2.7s-2.5,2.1-11.8,2.1s-13.3-4.4-13.3-4.4s-5.5,4.4-13.3,4.4
	s-14.3-3.6-14.3-3.6s-8,15-19.6,23.6c-11.5,8.5-19.1,10.3-19.1,10.3v-13.8c0,0-15.3,1.8-15.3,15C204.9,378.8,215,379.3,215,379.3z"
	/>
<path class="st5" d="M272.1,372.4h16.4c0,0-2.5,8.4-8.2,8.4S272.1,372.4,272.1,372.4z"/>
<path class="st0" d="M178.3,338.3c0,0-0.1-0.3-0.3-1.1c-0.2-0.7-0.5-1.7-0.7-3.1c-0.2-1.3-0.4-2.9-0.5-4.8c0-1.8,0-4,0.3-6.2
	c0.1-1.1,0.3-2.3,0.6-3.5c0.2-1.2,0.5-2.5,0.9-3.7c0.3-1.3,0.8-2.6,1.3-3.8c0.3-0.6,0.5-1.3,0.8-2c0.3-0.6,0.6-1.3,1-1.9
	c0.6-1.3,1.4-2.6,2.2-3.8c0.4-0.6,0.8-1.3,1.2-1.9l1.4-1.8c0.9-1.2,1.8-2.4,2.9-3.5l1.6-1.7l0.4-0.4l0.2-0.2l0.1-0.1l0.3-0.2
	l0.8-0.7c1-0.9,2-1.8,3.2-2.8s2.5-1.9,3.7-2.8c1.3-0.8,2.5-1.6,3.8-2.3c1.3-0.7,2.6-1.3,3.8-2c1.3-0.6,2.6-1.1,3.8-1.7
	c1.3-0.5,2.5-0.9,3.8-1.3c1.2-0.4,2.5-0.7,3.6-1c1.2-0.3,2.3-0.4,3.4-0.6c1.1-0.2,2.2-0.3,3.2-0.4s2-0.1,2.9-0.2
	c1.8-0.1,3.4,0,4.7,0.1s2.3,0.3,3,0.4s1.1,0.2,1.1,0.2c1.4,0.3,2.2,1.6,2,2.9c-0.2,1.1-1,1.8-2.1,2l-0.3,0.1c0,0-0.3,0-0.8,0.1
	c-0.6,0.1-1.5,0.3-2.6,0.5s-2.5,0.6-4,0.9c-1.5,0.4-3.2,0.9-5.1,1.6c-1.8,0.7-3.8,1.4-5.8,2.3s-4,2-6.1,3.2c-1,0.6-2,1.2-3,1.9
	c-1,0.7-2,1.4-3,2.1c-0.9,0.8-1.8,1.5-2.8,2.2c-1,0.8-2,1.9-3,2.8l-0.8,0.7l0,0c0.3-0.3,0.1-0.1,0.1-0.1l0,0l-0.1,0.1l-0.2,0.2
	l-0.3,0.3l-1.3,1.4c-0.9,0.9-1.7,1.8-2.4,2.8l-1.2,1.4l-1,1.5c-0.7,1-1.4,1.9-1.9,2.9c-0.6,1-1.2,2-1.7,3s-1,2-1.4,3
	c-0.2,0.5-0.4,1-0.6,1.5c-0.2,0.5-0.3,1-0.5,1.4c-0.4,0.9-0.7,1.9-0.9,2.8c-0.5,1.8-0.9,3.5-1.2,5s-0.4,2.9-0.5,4s-0.1,2-0.2,2.5
	c0,0.5,0,0.8,0,0.8c0.3,1.5-0.7,3-2.2,3.4C180.1,340.8,178.6,339.8,178.3,338.3z"/>
<path class="st6" d="M268.1,358.3h11.3c0,0-2.3-4.8-5.6-4.8C270.4,353.5,268.1,358.3,268.1,358.3z"/>
<path class="st7" d="M282.9,364.5H264c-1.1,0-2-0.9-2-2s0.9-2,2-2h18.9c1.1,0,2,0.9,2,2S284,364.5,282.9,364.5z"/>
<path class="st6" d="M305.8,358.3h11.3c0,0-2.3-4.8-5.6-4.8S305.8,358.3,305.8,358.3z"/>
<path class="st7" d="M320.6,364.5h-18.9c-1.1,0-2-0.9-2-2s0.9-2,2-2h18.9c1.1,0,2,0.9,2,2S321.7,364.5,320.6,364.5z"/>
<path class="st4" d="M282.9,340.7h-22.1c-1.7,0-3-1.3-3-3s1.3-3,3-3h22.1c1.7,0,3,1.3,3,3C285.9,339.4,284.6,340.7,282.9,340.7z"/>
<path class="st4" d="M322.2,347.9h-22.1c-1.7,0-3-1.3-3-3s1.3-3,3-3h22.1c1.7,0,3,1.3,3,3C325.2,346.5,323.8,347.9,322.2,347.9z"/>
<path class="st7" d="M291.3,352.4c0,0,8.7,9.8,8.7,13.8s-10.5,1-10.5,1L291.3,352.4z"/>
<circle class="st5" cx="357.8" cy="199.5" r="96.7"/>
<path class="st8" d="M440.8,249.1c8.7-14.5,13.6-31.4,13.6-49.5c0-31-14.7-58.6-37.4-76.3c14.7,16.8,23.7,38.8,23.7,62.9
	c0,52.7-42.7,95.4-95.4,95.4c-26.2,0-50-10.6-67.2-27.7c17.4,25.5,46.6,42.3,79.8,42.3c19.7,0,37.9-5.9,53.2-16
	c5.8,1.2,21.2,4.3,26.1,5.1c6.2,0.9,11.7-2.1,9.6-12C445.3,266.4,442.5,255.4,440.8,249.1z"/>
<path class="st9" d="M335.7,152.5l7.2,16.2c0,0,10.2-5.5,21.3-3.4c11.1,2.1,8.7,11.2,7.9,15.5c-0.8,4.2-13.5,11.4-19.8,14.8
	s-6.1,12-6.8,15.8c-0.7,3.8-1.4,7.4-1.4,7.4l17.8,3.4c0,0,1.7-7.9,2.4-11.3c0.6-3.4,14.4-5.6,23.6-15s14.3-28.5-1.2-40.9
	C371,142.6,346.4,146.7,335.7,152.5z"/>
<circle class="st9" cx="347.8" cy="239.8" r="13.9"/>
<g>
	<g>
		<defs>
			<circle id="SVGID_1_" cx="180.6" cy="209.5" r="56.6"/>
		</defs>
		<clipPath id="SVGID_2_">
			<use xlink:href="#SVGID_1_"  style="overflow:visible;"/>
		</clipPath>
		<circle class="st10" cx="189.7" cy="220.1" r="56.6"/>
	</g>
</g>
<path class="st8" d="M227.7,178.2c5.9,9,9.4,19.7,9.4,31.2c0,31.3-25.3,56.6-56.6,56.6c-14.7,0-28-5.6-38.1-14.7
	c10.1,15.3,27.5,25.3,47.2,25.3c31.3,0,56.6-25.3,56.6-56.6C246.2,203.5,239.1,188.6,227.7,178.2z"/>
<path class="st9" d="M170.3,204.7l6.3,5.5c0,0,3.3-4.4,8.4-5.6c5.1-1.3,5.9,3.1,6.4,5.1s-3.5,7.5-5.6,10.2c-2,2.7-0.3,6.3,0.2,8.1
	s0.9,3.4,0.9,3.4l8.3-2.1c0,0-0.8-3.7-1.2-5.3s5.1-5.2,7.1-11.1c2.1-5.8,0.5-15-8.6-17.2S173.8,200.1,170.3,204.7z"/>
<circle class="st9" cx="192.7" cy="239.7" r="6.6"/>
</svg>
