<?xml version="1.0" encoding="UTF-8"?>
<svg xmlns="http://www.w3.org/2000/svg" xmlns:xlink="http://www.w3.org/1999/xlink" width="48pt" height="48pt" viewBox="0 0 48 48" version="1.1">
<g id="surface1686013">
<path style="fill-rule:nonzero;fill:rgb(100%,100%,100%);fill-opacity:1;stroke-width:10;stroke-linecap:butt;stroke-linejoin:round;stroke:rgb(92.54902%,94.117647%,94.509804%);stroke-opacity:1;stroke-miterlimit:10;" d="M 150.506517 139.752962 L 21.493483 139.752962 L 21.493483 82.415482 L 86 21.493483 L 150.506517 82.415482 Z M 150.506517 139.752962 " transform="matrix(0.263721,0,0,0.263721,1.32,1.32)"/>
<path style="fill-rule:nonzero;fill:rgb(77.254902%,79.215686%,91.372549%);fill-opacity:1;stroke-width:10;stroke-linecap:butt;stroke-linejoin:round;stroke:rgb(92.54902%,94.117647%,94.509804%);stroke-opacity:1;stroke-miterlimit:10;" d="M 139.752962 75.246445 L 121.830371 57.338666 L 121.830371 32.247038 L 139.752962 32.247038 Z M 21.493483 139.752962 L 150.506517 139.752962 L 150.506517 157.660742 L 21.493483 157.660742 Z M 21.493483 139.752962 " transform="matrix(0.263721,0,0,0.263721,1.32,1.32)"/>
<path style="fill-rule:nonzero;fill:rgb(71.764706%,10.980392%,10.980392%);fill-opacity:1;stroke-width:10;stroke-linecap:butt;stroke-linejoin:round;stroke:rgb(92.54902%,94.117647%,94.509804%);stroke-opacity:1;stroke-miterlimit:10;" d="M 157.660742 82.059992 L 150.506517 89.940008 L 86 30.099289 L 21.493483 89.940008 L 14.339258 82.059992 L 86 15.405726 Z M 157.660742 82.059992 " transform="matrix(0.263721,0,0,0.263721,1.32,1.32)"/>
<path style="fill-rule:nonzero;fill:rgb(84.705882%,26.27451%,8.235294%);fill-opacity:1;stroke-width:10;stroke-linecap:butt;stroke-linejoin:round;stroke:rgb(92.54902%,94.117647%,94.509804%);stroke-opacity:1;stroke-miterlimit:10;" d="M 64.49289 100.338073 L 107.50711 100.338073 L 107.50711 157.660742 L 64.49289 157.660742 Z M 64.49289 100.338073 " transform="matrix(0.263721,0,0,0.263721,1.32,1.32)"/>
<path style="fill-rule:nonzero;fill:rgb(0.392157%,34.117647%,60.784314%);fill-opacity:1;stroke-width:10;stroke-linecap:butt;stroke-linejoin:round;stroke:rgb(92.54902%,94.117647%,94.509804%);stroke-opacity:1;stroke-miterlimit:10;" d="M 75.246445 60.923184 L 96.753555 60.923184 L 96.753555 82.415482 L 75.246445 82.415482 Z M 75.246445 60.923184 " transform="matrix(0.263721,0,0,0.263721,1.32,1.32)"/>
<path style="fill-rule:nonzero;fill:rgb(100%,54.117647%,39.607843%);fill-opacity:1;stroke-width:10;stroke-linecap:butt;stroke-linejoin:round;stroke:rgb(92.54902%,94.117647%,94.509804%);stroke-opacity:1;stroke-miterlimit:10;" d="M 100.338073 128.999408 L 100.338073 136.168444 C 100.338073 137.234912 99.612282 137.960703 98.545814 137.960703 C 97.464534 137.960703 96.753555 137.234912 96.753555 136.168444 L 96.753555 128.999408 C 96.753555 127.918127 97.464534 127.207148 98.545814 127.207148 C 99.612282 127.207148 100.338073 127.918127 100.338073 128.999408 Z M 100.338073 128.999408 " transform="matrix(0.263721,0,0,0.263721,1.32,1.32)"/>
<path style=" stroke:none;fill-rule:nonzero;fill:rgb(100%,100%,100%);fill-opacity:1;" d="M 41.011719 38.175781 L 6.988281 38.175781 L 6.988281 23.054688 L 24 6.988281 L 41.011719 23.054688 Z M 41.011719 38.175781 "/>
<path style=" stroke:none;fill-rule:nonzero;fill:rgb(60.784314%,34.901961%,71.372549%);fill-opacity:1;" d="M 38.175781 21.164062 L 33.449219 16.441406 L 33.449219 9.824219 L 38.175781 9.824219 Z M 6.988281 38.175781 L 41.011719 38.175781 L 41.011719 42.898438 L 6.988281 42.898438 Z M 6.988281 38.175781 "/>
<path style=" stroke:none;fill-rule:nonzero;fill:rgb(71.764706%,10.980392%,10.980392%);fill-opacity:1;" d="M 24 5.382812 L 5.101562 22.960938 L 6.988281 25.039062 L 24 9.257812 L 41.011719 25.039062 L 42.898438 22.960938 Z M 24 5.382812 "/>
<path style=" stroke:none;fill-rule:nonzero;fill:rgb(84.705882%,26.27451%,8.235294%);fill-opacity:1;" d="M 18.328125 27.78125 L 29.671875 27.78125 L 29.671875 42.898438 L 18.328125 42.898438 Z M 18.328125 27.78125 "/>
<path style=" stroke:none;fill-rule:nonzero;fill:rgb(0.392157%,34.117647%,60.784314%);fill-opacity:1;" d="M 21.164062 17.386719 L 26.835938 17.386719 L 26.835938 23.054688 L 21.164062 23.054688 Z M 21.164062 17.386719 "/>
<path style=" stroke:none;fill-rule:nonzero;fill:rgb(100%,54.117647%,39.607843%);fill-opacity:1;" d="M 27.308594 34.867188 C 27.023438 34.867188 26.835938 35.054688 26.835938 35.339844 L 26.835938 37.230469 C 26.835938 37.511719 27.023438 37.703125 27.308594 37.703125 C 27.589844 37.703125 27.78125 37.511719 27.78125 37.230469 L 27.78125 35.339844 C 27.78125 35.054688 27.589844 34.867188 27.308594 34.867188 Z M 27.308594 34.867188 "/>
</g>
</svg>
