<?xml version="1.0" ?><svg id="Layer_1" style="enable-background:new 0 0 50 50;" version="1.1" viewBox="0 0 50 50" xml:space="preserve" xmlns="http://www.w3.org/2000/svg" xmlns:xlink="http://www.w3.org/1999/xlink"><style type="text/css">
	.st0{fill:#F0C4DB;}
	.st1{fill:#FF9D9C;}
	.st2{fill:#9BEAF9;}
	.st3{fill:#E9F4BC;}
	.st4{fill:#505050;}
	.st5{fill:#FEBECC;}
	.st6{fill:#FFFFFF;}
	.st7{fill:#FDE4A1;}
	.st8{fill:#FEE7B5;}
	.st9{fill:#CDF6FC;}
	.st10{fill:#F2C6DD;}
	.st11{opacity:0.1;}
</style><g><path class="st8" d="M48.87,27.66c-3.56-2.78-8.03-4.45-12.9-4.45c-11.6,0-21,9.4-21,21c0,1.55,0.18,3.06,0.5,4.52h33.4V27.66z"/><g><g><path class="st5" d="M30.92,32.62c-2.51,5.03-7.71,8.48-13.71,8.48c-1.44,0-2.85-0.2-4.17-0.57l-7.06,6.89l2.51-9.04     c-4-2.76-6.62-7.39-6.62-12.62c0-8.47,6.86-15.33,15.33-15.33c0.55,0,1.09,0.03,1.62,0.09c-1.04,2.07-1.62,4.39-1.62,6.86     c0,1.09,0.11,2.16,0.33,3.19C18.9,26.98,24.27,31.92,30.92,32.62z"/><path class="st2" d="M30.92,32.62c0.53,0.11,1.08,0.09,1.62,0.09c1.44,0,2.85-0.2,4.17-0.57l7.06,6.89l-2.51-9.04     c4-2.76,6.62-7.39,6.62-12.62c0-8.47-6.86-15.33-15.33-15.33c-6,0-11.2,3.45-13.71,8.48c0,0-4.68,8.32,1.34,15.91     C20.17,26.42,22.83,30.86,30.92,32.62z"/></g><g><path class="st4" d="M42.12,30.29c4.07-3.02,6.5-7.85,6.5-12.92c0-0.37-0.01-0.75-0.03-1.14c-0.03-0.41-0.4-0.73-0.81-0.69     c-0.2,0.01-0.38,0.1-0.51,0.25c-0.13,0.15-0.2,0.35-0.18,0.55c0.02,0.34,0.03,0.68,0.03,1.03c0,4.79-2.35,9.28-6.29,12     c-0.26,0.18-0.38,0.51-0.3,0.82l1.77,6.35l-5.06-4.95c-0.19-0.18-0.47-0.25-0.73-0.18c-1.79,0.51-3.77,0.66-5.51,0.46     c-0.01,0-0.01,0-0.02,0c-6.29-0.66-11.4-5.27-12.71-11.47c0,0,0,0,0,0c0,0,0,0,0,0c-0.21-0.98-0.32-2-0.32-3.03     c0-2.3,0.52-4.49,1.54-6.52c0-0.01,0-0.01,0-0.02c2.48-4.96,7.48-8.05,13.03-8.05c6.23,0,11.77,3.96,13.8,9.84     c0.1,0.3,0.38,0.51,0.7,0.51c0.09,0,0.17-0.02,0.25-0.04c0.39-0.14,0.6-0.57,0.46-0.96v-0.01C45.52,5.64,39.41,1.29,32.54,1.28     c-3.04,0-6,0.86-8.56,2.47c-2.36,1.48-4.27,3.55-5.58,5.99c-0.39-0.03-0.78-0.06-1.19-0.06c-8.87,0-16.08,7.21-16.08,16.08     c0,5.11,2.42,9.9,6.5,12.92l-2.37,8.53c-0.09,0.33,0.05,0.67,0.34,0.85c0.12,0.07,0.25,0.1,0.38,0.1c0.19,0,0.38-0.07,0.52-0.21     l6.75-6.59c1.28,0.33,2.61,0.49,3.95,0.49c5.97,0,11.34-3.23,14.14-8.45c1.62,0.13,3.45,0,5.14-0.42l6.76,6.59     c0.14,0.14,0.32,0.21,0.52,0.21c0.13,0,0.27-0.03,0.38-0.1c0.29-0.17,0.43-0.52,0.34-0.85L42.12,30.29z M16.96,21.3     c0.35,1.41,0.88,2.74,1.56,3.97C18.12,25.1,17.68,25,17.21,25c-1.03,0-1.86-0.84-1.86-1.86C15.35,22.2,16.05,21.43,16.96,21.3z      M17.21,40.34c-1.35,0-2.69-0.18-3.97-0.55c-0.26-0.07-0.54,0-0.73,0.19l-5.07,4.95l1.77-6.35c0.09-0.31-0.03-0.64-0.3-0.82     c-3.94-2.72-6.29-7.21-6.29-12c0-8.04,6.54-14.58,14.58-14.58c0.16,0,0.33,0,0.49,0.01c-0.82,1.95-1.24,4.03-1.24,6.19     c0,0.5,0.03,1,0.08,1.5c-0.05,0.1-0.08,0.2-0.08,0.32v0.69c-1.49,0.34-2.61,1.68-2.61,3.27c0,1.85,1.51,3.36,3.36,3.36     c1.03,0,1.86,0.84,1.86,1.87c0,1.03-0.83,1.86-1.86,1.86c0,0,0,0,0,0s0,0,0,0c-1.03,0-1.86-0.84-1.86-1.86     c0-0.41-0.34-0.75-0.75-0.75s-0.75,0.34-0.75,0.75c0,1.6,1.12,2.93,2.61,3.27v0.69c0,0.41,0.34,0.75,0.75,0.75     s0.75-0.34,0.75-0.75v-0.69c1.49-0.34,2.61-1.68,2.61-3.27c0-0.09-0.02-0.18-0.03-0.27c2.36,2.64,5.57,4.47,9.2,5.1     C27.13,37.64,22.42,40.34,17.21,40.34z"/><path class="st4" d="M46.94,13.89c-0.11,0.17-0.15,0.37-0.11,0.56c0.07,0.35,0.38,0.61,0.74,0.61c0.05,0,0.1-0.01,0.15-0.02     c0.19-0.04,0.36-0.15,0.47-0.32c0.11-0.17,0.15-0.37,0.11-0.56c-0.08-0.4-0.48-0.67-0.88-0.59     C47.22,13.61,47.05,13.72,46.94,13.89z"/><path class="st4" d="M32.54,12.89c1.03,0,1.87,0.84,1.87,1.86c0,0.41,0.34,0.75,0.75,0.75s0.75-0.34,0.75-0.75     c0-1.6-1.12-2.93-2.62-3.27v-0.69c0-0.41-0.34-0.75-0.75-0.75s-0.75,0.34-0.75,0.75v0.69c-1.49,0.34-2.61,1.68-2.61,3.27     c0,1.86,1.51,3.36,3.36,3.36c1.03,0,1.87,0.84,1.87,1.86s-0.84,1.86-1.87,1.86s-1.86-0.84-1.86-1.86c0-0.41-0.34-0.75-0.75-0.75     s-0.75,0.34-0.75,0.75c0,1.6,1.12,2.93,2.61,3.27v0.69c0,0.41,0.34,0.75,0.75,0.75s0.75-0.34,0.75-0.75v-0.69     c1.49-0.34,2.62-1.68,2.62-3.27c0-1.86-1.51-3.36-3.37-3.36c-1.03,0-1.86-0.84-1.86-1.86S31.51,12.89,32.54,12.89z"/></g></g></g></svg>